<svg xmlns="http://www.w3.org/2000/svg" xmlns:xlink="http://www.w3.org/1999/xlink" version="1.1" width="256" height="256" viewBox="0 0 256 256" xml:space="preserve">
<desc>Created with Fabric.js 1.7.22</desc>
<defs>
</defs>
<g transform="translate(128 128) scale(0.72 0.72)" style="">
	<g style="stroke: none; stroke-width: 0; stroke-dasharray: none; stroke-linecap: butt; stroke-linejoin: miter; stroke-miterlimit: 10; fill: none; fill-rule: nonzero; opacity: 1;" transform="translate(-175.05 -175.05000000000004) scale(3.89 3.89)" >
	<path d="M 76.887 60.047 h -2.579 c -0.828 0 -1.5 -0.672 -1.5 -1.5 s 0.672 -1.5 1.5 -1.5 h 2.579 C 82.463 57.047 87 52.51 87 46.934 c 0 -5.335 -4.179 -9.763 -9.514 -10.08 l -1.581 -0.094 l 0.18 -1.573 c 0.1 -0.872 0.147 -1.652 0.147 -2.385 c 0 -11.438 -9.305 -20.742 -20.742 -20.742 c -7.165 0 -13.729 3.641 -17.559 9.74 l -0.745 1.186 l -1.234 -0.662 c -2.296 -1.231 -4.89 -1.882 -7.503 -1.882 c -8.491 0 -15.457 6.65 -15.858 15.14 l -0.057 1.197 l -1.18 0.209 C 6.514 37.847 3 42.03 3 46.934 c 0 5.576 4.537 10.113 10.113 10.113 h 3.069 c 0.829 0 1.5 0.672 1.5 1.5 s -0.671 1.5 -1.5 1.5 h -3.069 C 5.883 60.047 0 54.164 0 46.934 c 0 -5.966 4.007 -11.109 9.683 -12.645 c 1.025 -9.536 9.057 -16.849 18.766 -16.849 c 2.648 0 5.282 0.563 7.693 1.637 c 4.46 -6.298 11.597 -10.019 19.349 -10.019 c 13.092 0 23.742 10.651 23.742 23.742 c 0 0.401 -0.013 0.813 -0.037 1.239 C 85.365 35.139 90 40.533 90 46.934 C 90 54.164 84.117 60.047 76.887 60.047 z" style="stroke: none; stroke-width: 1; stroke-dasharray: none; stroke-linecap: butt; stroke-linejoin: miter; stroke-miterlimit: 10; fill: rgb(240,90,24); fill-rule: nonzero; opacity: 1;" transform=" matrix(1 0 0 1 0 0) " stroke-linecap="round" />
	<path d="M 58.566 60.047 H 31.943 c -0.829 0 -1.5 -0.672 -1.5 -1.5 s 0.671 -1.5 1.5 -1.5 h 26.624 c 0.828 0 1.5 0.672 1.5 1.5 S 59.395 60.047 58.566 60.047 z" style="stroke: none; stroke-width: 1; stroke-dasharray: none; stroke-linecap: butt; stroke-linejoin: miter; stroke-miterlimit: 10; fill: rgb(240,90,24); fill-rule: nonzero; opacity: 1;" transform=" matrix(1 0 0 1 0 0) " stroke-linecap="round" />
	<path d="M 67.392 67.67 V 46.631 c 0 -0.829 -0.672 -1.5 -1.5 -1.5 H 24.108 c -0.829 0 -1.5 0.671 -1.5 1.5 v 28.445 l -2.54 -3.26 c -0.509 -0.654 -1.452 -0.771 -2.105 -0.262 c -0.653 0.51 -0.771 1.452 -0.261 2.105 l 5.223 6.704 c 0.015 0.019 0.034 0.033 0.05 0.051 c 0.045 0.052 0.093 0.101 0.144 0.147 c 0.03 0.026 0.059 0.051 0.09 0.075 c 0.055 0.042 0.114 0.078 0.175 0.112 c 0.032 0.018 0.062 0.036 0.095 0.052 c 0.069 0.032 0.142 0.056 0.217 0.078 c 0.029 0.008 0.056 0.02 0.085 0.026 c 0.095 0.021 0.193 0.032 0.294 0.035 c 0.01 0 0.019 0.003 0.028 0.003 c 0.001 0 0.003 0 0.005 0 c 0.111 0 0.218 -0.014 0.322 -0.037 c 0.03 -0.006 0.057 -0.018 0.086 -0.027 c 0.074 -0.021 0.146 -0.044 0.215 -0.076 c 0.034 -0.016 0.066 -0.035 0.098 -0.053 c 0.059 -0.033 0.117 -0.068 0.171 -0.108 c 0.033 -0.024 0.063 -0.051 0.094 -0.078 c 0.05 -0.044 0.097 -0.091 0.14 -0.141 c 0.016 -0.018 0.036 -0.032 0.051 -0.051 l 5.223 -6.614 c 0.513 -0.65 0.402 -1.594 -0.248 -2.106 c -0.65 -0.514 -1.594 -0.403 -2.107 0.247 l -2.546 3.224 v -26.99 h 38.784 V 67.67 c -2.986 0.684 -5.223 3.357 -5.223 6.548 c 0 3.707 3.016 6.724 6.723 6.724 s 6.724 -3.017 6.724 -6.724 C 72.615 71.027 70.378 68.354 67.392 67.67 z M 65.892 77.941 c -2.053 0 -3.723 -1.671 -3.723 -3.724 s 1.67 -3.723 3.723 -3.723 s 3.724 1.67 3.724 3.723 S 67.944 77.941 65.892 77.941 z" style="stroke: none; stroke-width: 1; stroke-dasharray: none; stroke-linecap: butt; stroke-linejoin: miter; stroke-miterlimit: 10; fill: rgb(65,98,163); fill-rule: nonzero; opacity: 1;" transform=" matrix(1 0 0 1 0 0) " stroke-linecap="round" />
	<path d="M 67.472 34.742 c -0.828 0 -1.5 -0.671 -1.5 -1.5 c 0 -5.78 -4.702 -10.482 -10.481 -10.482 c -0.828 0 -1.5 -0.671 -1.5 -1.5 s 0.672 -1.5 1.5 -1.5 c 7.434 0 13.481 6.048 13.481 13.482 C 68.972 34.071 68.3 34.742 67.472 34.742 z" style="stroke: none; stroke-width: 1; stroke-dasharray: none; stroke-linecap: butt; stroke-linejoin: miter; stroke-miterlimit: 10; fill: rgb(37,50,74); fill-rule: nonzero; opacity: 1;" transform=" matrix(1 0 0 1 0 0) " stroke-linecap="round" />
	<path d="M 21.859 37.451 c -0.024 0 -0.048 0 -0.072 -0.001 c -0.828 -0.04 -1.467 -0.742 -1.428 -1.569 c 0.205 -4.33 3.758 -7.721 8.089 -7.721 c 0.829 0 1.5 0.671 1.5 1.5 s -0.671 1.5 -1.5 1.5 c -2.727 0 -4.963 2.136 -5.092 4.862 C 23.319 36.825 22.655 37.451 21.859 37.451 z" style="stroke: none; stroke-width: 1; stroke-dasharray: none; stroke-linecap: butt; stroke-linejoin: miter; stroke-miterlimit: 10; fill: rgb(37,50,74); fill-rule: nonzero; opacity: 1;" transform=" matrix(1 0 0 1 0 0) " stroke-linecap="round" />
</g>
</g>
</svg>