<svg xmlns="http://www.w3.org/2000/svg" xmlns:xlink="http://www.w3.org/1999/xlink" version="1.1" width="256" height="256" viewBox="0 0 256 256" xml:space="preserve">
<desc>Created with Fabric.js 1.7.22</desc>
<defs>
</defs>
<g transform="translate(128 128) scale(1.23 1.23)" style="">
	<g style="stroke: none; stroke-width: 0; stroke-dasharray: none; stroke-linecap: butt; stroke-linejoin: miter; stroke-miterlimit: 10; fill: none; fill-rule: nonzero; opacity: 1;" transform="translate(-103.04999999999998 -103.05) scale(2.29 2.29)" >
	<path d="M 78.983 90 H 11.016 C 4.942 90 0 85.058 0 78.983 V 11.016 C 0 4.942 4.942 0 11.016 0 h 67.967 C 85.058 0 90 4.942 90 11.016 v 67.967 C 90 85.058 85.058 90 78.983 90 z M 11.016 4 C 7.147 4 4 7.147 4 11.016 v 67.967 C 4 82.853 7.147 86 11.016 86 h 67.967 C 82.853 86 86 82.853 86 78.983 V 11.016 C 86 7.147 82.853 4 78.983 4 H 11.016 z" style="stroke: none; stroke-width: 1; stroke-dasharray: none; stroke-linecap: butt; stroke-linejoin: miter; stroke-miterlimit: 10; fill: rgb(240,90,24); fill-rule: nonzero; opacity: 1;" transform=" matrix(1 0 0 1 0 0) " stroke-linecap="round" />
	<path d="M 15.788 61.772 c -0.517 0 -1.034 -0.199 -1.425 -0.597 c -0.775 -0.788 -0.765 -2.054 0.022 -2.829 L 37.486 35.61 c 0.409 -0.402 0.966 -0.614 1.542 -0.57 c 0.572 0.04 1.099 0.323 1.448 0.778 L 51.32 49.952 l 21.488 -21.15 c 0.788 -0.774 2.055 -0.765 2.829 0.022 s 0.765 2.053 -0.022 2.828 L 52.514 54.391 c -0.409 0.401 -0.973 0.603 -1.542 0.569 c -0.572 -0.04 -1.1 -0.323 -1.448 -0.777 L 38.68 40.048 L 17.19 61.198 C 16.801 61.581 16.294 61.772 15.788 61.772 z" style="stroke: none; stroke-width: 1; stroke-dasharray: none; stroke-linecap: butt; stroke-linejoin: miter; stroke-miterlimit: 10; fill: rgb(240,90,24); fill-rule: nonzero; opacity: 1;" transform=" matrix(1 0 0 1 0 0) " stroke-linecap="round" />
</g>
</g>
</svg>