<svg xmlns="http://www.w3.org/2000/svg" xmlns:xlink="http://www.w3.org/1999/xlink" version="1.1" width="256" height="256" viewBox="0 0 256 256" xml:space="preserve">
<desc>Created with Fabric.js 1.7.22</desc>
<defs>
</defs>
<g transform="translate(128 128) scale(0.72 0.72)" style="">
	<g style="stroke: none; stroke-width: 0; stroke-dasharray: none; stroke-linecap: butt; stroke-linejoin: miter; stroke-miterlimit: 10; fill: none; fill-rule: nonzero; opacity: 1;" transform="translate(-175.05 -175.05000000000004) scale(3.89 3.89)" >
	<path d="M 55.187 47.749 H 39.473 c 1.033 -3.212 1.61 -6.688 1.932 -10.873 h 6.876 c 1.104 0 2 -0.896 2 -2 s -0.896 -2 -2 -2 h -6.649 c 0.085 -2.125 0.129 -4.422 0.151 -6.941 c 0 -3.144 2.558 -5.702 5.703 -5.702 c 3.144 0 5.701 2.558 5.701 5.702 c 0 1.104 0.896 2 2 2 s 2 -0.896 2 -2 c 0 -5.35 -4.352 -9.702 -9.701 -9.702 c -5.35 0 -9.703 4.353 -9.703 9.685 c -0.022 2.544 -0.067 4.843 -0.154 6.958 h -2.816 c -1.104 0 -2 0.896 -2 2 s 0.896 2 2 2 h 2.578 c -0.393 4.834 -1.154 8.611 -2.635 12.089 c -0.263 0.617 -0.198 1.326 0.172 1.886 c 0.371 0.561 0.997 0.897 1.668 0.897 h 18.591 c 1.104 0 2 -0.896 2 -2 S 56.291 47.749 55.187 47.749 z" style="stroke: none; stroke-width: 1; stroke-dasharray: none; stroke-linecap: butt; stroke-linejoin: miter; stroke-miterlimit: 10; fill: rgb(240,90,24); fill-rule: nonzero; opacity: 1;" transform=" matrix(1 0 0 1 0 0) " stroke-linecap="round" />
	<path d="M 90 45.742 c 0 -0.065 -0.011 -0.127 -0.017 -0.191 c -0.006 -0.066 -0.007 -0.132 -0.02 -0.198 c -0.014 -0.072 -0.039 -0.14 -0.061 -0.209 c -0.017 -0.055 -0.028 -0.111 -0.05 -0.165 c -0.047 -0.114 -0.105 -0.223 -0.171 -0.327 c -0.005 -0.007 -0.007 -0.015 -0.011 -0.022 c -0.003 -0.004 -0.006 -0.007 -0.009 -0.011 c -0.071 -0.106 -0.151 -0.204 -0.241 -0.295 c -0.038 -0.038 -0.081 -0.067 -0.121 -0.102 c -0.059 -0.051 -0.116 -0.104 -0.181 -0.148 c -0.051 -0.034 -0.107 -0.059 -0.16 -0.088 c -0.061 -0.033 -0.119 -0.071 -0.183 -0.098 c -0.104 -0.044 -0.212 -0.075 -0.321 -0.1 c -0.018 -0.004 -0.034 -0.013 -0.052 -0.016 L 78.6 41.771 c -1.08 -0.226 -2.14 0.477 -2.36 1.559 s 0.478 2.139 1.56 2.36 l 5.071 1.036 L 51.86 67.219 l -16.631 -6.31 c -0.602 -0.229 -1.276 -0.154 -1.812 0.201 L 0.898 82.602 c -0.922 0.609 -1.175 1.851 -0.566 2.771 c 0.385 0.582 1.021 0.897 1.67 0.897 c 0.378 0 0.761 -0.107 1.101 -0.331 l 31.664 -20.927 l 16.632 6.31 c 0.6 0.227 1.275 0.152 1.812 -0.201 l 31.865 -21.059 l -1.035 5.069 c -0.221 1.083 0.478 2.139 1.56 2.36 c 0.136 0.027 0.27 0.04 0.402 0.04 c 0.931 0 1.765 -0.652 1.958 -1.6 l 2.001 -9.801 c 0.005 -0.024 0.003 -0.048 0.007 -0.072 C 89.985 45.955 89.999 45.849 90 45.742 z" style="stroke: none; stroke-width: 1; stroke-dasharray: none; stroke-linecap: butt; stroke-linejoin: miter; stroke-miterlimit: 10; fill: rgb(240,90,24); fill-rule: nonzero; opacity: 1;" transform=" matrix(1 0 0 1 0 0) " stroke-linecap="round" />
	<path d="M 23.287 57.536 c -0.537 0 -1.071 -0.215 -1.465 -0.639 c -5.454 -5.868 -8.458 -13.515 -8.458 -21.532 C 13.364 17.921 27.556 3.729 45 3.729 s 31.637 14.192 31.637 31.636 c 0 1.104 -0.896 2 -2 2 s -2 -0.896 -2 -2 C 72.637 20.126 60.24 7.729 45 7.729 c -15.239 0 -27.636 12.397 -27.636 27.636 c 0 7.003 2.624 13.684 7.388 18.81 c 0.752 0.809 0.706 2.074 -0.104 2.826 C 24.264 57.359 23.775 57.536 23.287 57.536 z" style="stroke: none; stroke-width: 1; stroke-dasharray: none; stroke-linecap: butt; stroke-linejoin: miter; stroke-miterlimit: 10; fill: rgb(240,90,24); fill-rule: nonzero; opacity: 1;" transform=" matrix(1 0 0 1 0 0) " stroke-linecap="round" />
</g>
</g>
</svg>