<svg xmlns="http://www.w3.org/2000/svg" xmlns:xlink="http://www.w3.org/1999/xlink" version="1.1" width="256" height="256" viewBox="0 0 256 256" xml:space="preserve">
<desc>Created with Fabric.js 1.7.22</desc>
<defs>
</defs>
<g transform="translate(128 128) scale(0.72 0.72)" style="">
	<g style="stroke: none; stroke-width: 0; stroke-dasharray: none; stroke-linecap: butt; stroke-linejoin: miter; stroke-miterlimit: 10; fill: none; fill-rule: nonzero; opacity: 1;" transform="translate(-175.05 -175.05000000000004) scale(3.89 3.89)" >
	<path d="M 53.737 75.999 H 36.263 c -1.104 0 -2 -0.896 -2 -2 V 56.524 c 0 -1.104 0.896 -2 2 -2 h 17.474 c 1.104 0 2 0.896 2 2 v 17.475 C 55.737 75.104 54.842 75.999 53.737 75.999 z M 38.263 71.999 h 13.474 V 58.524 H 38.263 V 71.999 z" style="stroke: none; stroke-width: 1; stroke-dasharray: none; stroke-linecap: butt; stroke-linejoin: miter; stroke-miterlimit: 10; fill: rgb(240,90,24); fill-rule: nonzero; opacity: 1;" transform=" matrix(1 0 0 1 0 0) " stroke-linecap="round" />
	<path d="M 19.474 75.999 H 2 c -1.104 0 -2 -0.896 -2 -2 V 56.524 c 0 -1.104 0.896 -2 2 -2 h 17.474 c 1.104 0 2 0.896 2 2 v 17.475 C 21.474 75.104 20.578 75.999 19.474 75.999 z M 4 71.999 h 13.474 V 58.524 H 4 V 71.999 z" style="stroke: none; stroke-width: 1; stroke-dasharray: none; stroke-linecap: butt; stroke-linejoin: miter; stroke-miterlimit: 10; fill: rgb(240,90,24); fill-rule: nonzero; opacity: 1;" transform=" matrix(1 0 0 1 0 0) " stroke-linecap="round" />
	<path d="M 88 75.999 H 70.526 c -1.104 0 -2 -0.896 -2 -2 V 56.524 c 0 -1.104 0.896 -2 2 -2 H 88 c 1.104 0 2 0.896 2 2 v 17.475 C 90 75.104 89.104 75.999 88 75.999 z M 72.526 71.999 H 86 V 58.524 H 72.526 V 71.999 z" style="stroke: none; stroke-width: 1; stroke-dasharray: none; stroke-linecap: butt; stroke-linejoin: miter; stroke-miterlimit: 10; fill: rgb(240,90,24); fill-rule: nonzero; opacity: 1;" transform=" matrix(1 0 0 1 0 0) " stroke-linecap="round" />
	<path d="M 66.827 40.105 H 23.172 c -1.104 0 -2 -0.896 -2 -2 V 16.001 c 0 -1.104 0.896 -2 2 -2 h 43.655 c 1.104 0 2 0.896 2 2 v 22.104 C 68.827 39.209 67.932 40.105 66.827 40.105 z M 25.172 36.105 h 39.655 V 18.001 H 25.172 V 36.105 z" style="stroke: none; stroke-width: 1; stroke-dasharray: none; stroke-linecap: butt; stroke-linejoin: miter; stroke-miterlimit: 10; fill: rgb(240,90,24); fill-rule: nonzero; opacity: 1;" transform=" matrix(1 0 0 1 0 0) " stroke-linecap="round" />
	<path d="M 45 58.524 c -1.104 0 -2 -0.896 -2 -2 V 38.105 c 0 -1.104 0.896 -2 2 -2 s 2 0.896 2 2 v 18.419 C 47 57.629 46.104 58.524 45 58.524 z" style="stroke: none; stroke-width: 1; stroke-dasharray: none; stroke-linecap: butt; stroke-linejoin: miter; stroke-miterlimit: 10; fill: rgb(240,90,24); fill-rule: nonzero; opacity: 1;" transform=" matrix(1 0 0 1 0 0) " stroke-linecap="round" />
	<path d="M 79.263 58.524 c -1.104 0 -2 -0.896 -2 -2 v -7.21 H 12.737 v 7.21 c 0 1.104 -0.896 2 -2 2 s -2 -0.896 -2 -2 v -9.21 c 0 -1.104 0.896 -2 2 -2 h 68.526 c 1.104 0 2 0.896 2 2 v 9.21 C 81.263 57.629 80.367 58.524 79.263 58.524 z" style="stroke: none; stroke-width: 1; stroke-dasharray: none; stroke-linecap: butt; stroke-linejoin: miter; stroke-miterlimit: 10; fill: rgb(240,90,24); fill-rule: nonzero; opacity: 1;" transform=" matrix(1 0 0 1 0 0) " stroke-linecap="round" />
</g>
</g>
</svg>